<?xml version="1.0" encoding="UTF-8" standalone="no"?>
<!-- Created with Inkscape (http://www.inkscape.org/) -->

<svg
   width="24"
   height="24"
   viewBox="0 0 6.3499999 6.35"
   version="1.1"
   id="svg400"
   inkscape:version="1.2.1 (2ed6d7ae0b, 2022-08-22, custom)"
   sodipodi:docname="mail.svg"
   xmlns:inkscape="http://www.inkscape.org/namespaces/inkscape"
   xmlns:sodipodi="http://sodipodi.sourceforge.net/DTD/sodipodi-0.dtd"
   xmlns="http://www.w3.org/2000/svg"
   xmlns:svg="http://www.w3.org/2000/svg">
  <sodipodi:namedview
     id="namedview402"
     pagecolor="#ffffff"
     bordercolor="#000000"
     borderopacity="0.25"
     inkscape:showpageshadow="2"
     inkscape:pageopacity="0.0"
     inkscape:pagecheckerboard="0"
     inkscape:deskcolor="#d1d1d1"
     inkscape:document-units="mm"
     showgrid="false"
     inkscape:zoom="21.637037"
     inkscape:cx="3.5587128"
     inkscape:cy="8.8043478"
     inkscape:window-width="1542"
     inkscape:window-height="979"
     inkscape:window-x="-5"
     inkscape:window-y="24"
     inkscape:window-maximized="0"
     inkscape:current-layer="layer1" />
  <defs
     id="defs397" />
  <g
     inkscape:groupmode="layer"
     id="layer2"
     inkscape:label="Layer 2">
    <rect
       style="fill:#000000;stroke-width:0.264583"
       id="rect1089"
       width="5.2225318"
       height="4.5815139"
       x="0.56806928"
       y="1.0562481"
       rx="0.2" />
  </g>
  <g
     inkscape:label="Layer 1"
     inkscape:groupmode="layer"
     id="layer1">
    <path
       sodipodi:type="star"
       style="fill:#ffffff;stroke-width:0.264583"
       id="path1082"
       inkscape:flatsided="false"
       sodipodi:sides="3"
       sodipodi:cx="0.12192623"
       sodipodi:cy="0.1342769"
       sodipodi:r1="3.0799699"
       sodipodi:r2="1.5399849"
       sodipodi:arg1="1.5856819"
       sodipodi:arg2="2.6328795"
       inkscape:rounded="0.1"
       inkscape:randomized="0"
       d="M 0.07608081,3.2139056 C -0.19062286,3.2099352 -1.0931401,1.1172897 -1.2230535,0.88433234 -1.3529669,0.65137504 -2.658978,-1.2162538 -2.5221877,-1.4452407 c 0.1367902,-0.228987 2.40033305,0.035733 2.66703672,0.039703 0.26670366,0.00397 2.53712318,-0.193254 2.66703658,0.039703 C 2.941799,-1.1328768 1.5807734,0.69504879 1.4439832,0.92403578 1.3071929,1.1530228 0.34278447,3.2178759 0.07608081,3.2139056 Z"
       inkscape:transform-center-x="-0.022274615"
       inkscape:transform-center-y="0.32303169"
       transform="matrix(1,0,0,0.4591918,3.0591715,1.6632813)" />
    <rect
       style="fill:#000000;stroke-width:0.264583"
       id="rect1091"
       width="5.2044287"
       height="0.37903279"
       x="0.57488203"
       y="1.0611759"
       rx="0.2" />
    <path
       style="fill:#ffffff;stroke-width:0.264583"
       id="path1144"
       d="M 0.78844073,5.4049218 C 0.85308913,5.3685521 0.91754877,5.331828 0.98130719,5.2939171 1.0398435,5.2593851 1.0969434,5.2233985 1.1458154,5.1759294 1.1861645,5.1320345 1.2285632,5.0902819 1.2717535,5.0492112 1.345129,4.9813545 1.4064629,4.9021269 1.4734218,4.828206 c 0.012623,-0.012869 0.024974,-0.026011 0.037868,-0.038607 0.021126,-0.02064 0.069627,-0.06467 0.090234,-0.084507 0.047519,-0.045742 0.093433,-0.093154 0.1407463,-0.13912 0.064145,-0.061571 0.135626,-0.1145638 0.2033133,-0.1720133 0.025596,-0.021725 0.07929,-0.06886 0.1050154,-0.091365 0.1041716,-0.090967 0.2120001,-0.1776007 0.3159621,-0.2688164 0.053054,-0.047193 0.1050652,-0.095322 0.1616042,-0.1383421 0.058381,-0.041225 0.1183694,-0.079658 0.174541,-0.1239457 0.03859,-0.031507 0.073221,-0.067367 0.1076242,-0.1032756 0,0 -8.202e-4,-5.027e-4 -8.202e-4,-5.027e-4 v 0 c -0.034393,0.035911 -0.069017,0.071771 -0.1076049,0.1032722 -0.056175,0.044286 -0.1161761,0.082705 -0.1745571,0.1239334 -0.056536,0.043023 -0.1085285,0.091169 -0.1615743,0.1383687 -0.1039463,0.091232 -0.2117647,0.1778738 -0.3159486,0.2688246 -0.025981,0.022733 -0.079141,0.069409 -0.1050118,0.091365 -0.067692,0.057449 -0.1391798,0.1104368 -0.203322,0.1720159 -0.047313,0.045965 -0.093225,0.093379 -0.1407471,0.1391174 -0.020424,0.019656 -0.069292,0.064032 -0.090248,0.084503 -0.012895,0.012597 -0.025246,0.025741 -0.037869,0.038611 -0.066957,0.073922 -0.1282976,0.1531453 -0.2016896,0.220984 -0.043194,0.041068 -0.085596,0.082819 -0.1259445,0.1267153 -0.048866,0.047459 -0.1059521,0.083452 -0.16447859,0.1179803 -0.0637627,0.037915 -0.12822541,0.074646 -0.19290225,0.1109771 0,0 8.255e-4,5.292e-4 8.255e-4,5.292e-4 z" />
    <path
       style="fill:#ffffff;stroke-width:0.264583"
       id="path1146"
       d="m 0.82192642,5.4863703 c 0.0398017,-0.029414 0.0845589,-0.051302 0.12401153,-0.081248 0.0150675,-0.011438 0.0293406,-0.023884 0.044011,-0.035826 C 1.0786877,5.2921966 1.172369,5.2214271 1.2694712,5.1552996 1.3274301,5.11747 1.3875815,5.0833432 1.4430495,5.0418864 1.5180951,4.9800562 1.5941177,4.9195902 1.6726701,4.8622693 1.7683439,4.7978821 1.85358,4.7204931 1.938939,4.6434044 2.0432608,4.5535834 2.1385727,4.4541688 2.237785,4.358918 2.309529,4.289194 2.3878408,4.226978 2.4652304,4.1637881 2.5356083,4.1089521 2.5941839,4.0422009 2.6501772,3.9732849 c 0.050416,-0.061113 0.095782,-0.1261089 0.1441622,-0.18879 0.026785,-0.034969 0.062549,-0.060499 0.096572,-0.087708 0.024707,-0.019677 0.048007,-0.040993 0.069395,-0.064221 0.010668,-0.010702 0.00539,-0.00552 0.015814,-0.01555 0,0 -0.041974,-0.025807 -0.041974,-0.025807 v 0 c -0.010433,0.010216 -0.00516,0.00492 -0.015809,0.015891 -0.021111,0.023138 -0.044266,0.044186 -0.068745,0.063736 -0.034242,0.027412 -0.069695,0.053778 -0.096302,0.089239 C 2.705305,3.822951 2.6603256,3.8881134 2.610116,3.949298 2.5541974,4.01794 2.4952687,4.0839143 2.4253028,4.1387791 2.3482445,4.2023278 2.2701183,4.2647367 2.1989527,4.3350317 2.100403,4.4308953 2.0045772,4.5297195 1.9001837,4.6193842 1.8148325,4.6964351 1.7288288,4.7728827 1.6332344,4.8372625 1.5547866,4.8948112 1.4787827,4.955391 1.403195,5.0166283 1.3472074,5.0571505 1.2871127,5.0912574 1.2299317,5.1300721 1.1336263,5.1973239 1.0403662,5.2685883 0.95088928,5.3447613 c -0.0148698,0.011673 -0.0293726,0.023834 -0.0446095,0.035025 -0.0403084,0.029607 -0.0854844,0.051641 -0.12632399,0.080421 0,0 0.0419699,0.026165 0.0419699,0.026165 z" />
    <path
       style="fill:#ffffff;stroke-width:0.264583"
       id="path1148"
       d="m 3.4987507,3.7335957 c 0.062612,-0.00238 0.122659,0.016645 0.1812198,0.036379 0.071513,0.022992 0.1395714,0.057841 0.2022684,0.095903 0.057123,0.03881 0.1146106,0.078356 0.1663067,0.1243748 0.028802,0.025638 0.065914,0.064255 0.092828,0.091589 0.058798,0.060317 0.1149586,0.1233448 0.1774029,0.1800185 0.026887,0.024403 0.05025,0.042887 0.078162,0.065644 0.069383,0.050179 0.1368119,0.1028046 0.202066,0.1582285 0.090121,0.078256 0.1743483,0.1630048 0.2606297,0.2454312 0.065774,0.063652 0.1383268,0.1196755 0.213719,0.1713619 0.058652,0.038574 0.1174176,0.076785 0.1732307,0.1194086 0.072629,0.054602 0.1387467,0.116935 0.2016368,0.1823331 0.035017,0.037321 0.068934,0.075647 0.103813,0.1130961 0.025064,0.029482 0.052137,0.057075 0.078863,0.085026 0.00468,0.00515 0.00936,0.010306 0.014034,0.015457 0,0 0.044779,0.018815 0.044779,0.018815 v 0 c -0.00467,-0.0052 -0.00935,-0.010398 -0.01402,-0.015597 C 5.6490351,5.393152 5.6218909,5.3657277 5.5970228,5.3361748 5.5616252,5.298564 5.5272056,5.2600531 5.4918215,5.2224294 5.4289393,5.15705 5.3630094,5.0945346 5.2907083,5.0395414 5.235095,4.9966284 5.1764033,4.958312 5.1176229,4.9199032 5.041607,4.8683275 4.9683632,4.8124123 4.9020782,4.7486313 4.8159183,4.6664707 4.7318416,4.5819954 4.6424614,4.503331 4.5773334,4.4476606 4.5100774,4.3946828 4.440289,4.3449366 4.4128856,4.3228307 4.3875774,4.3029661 4.3612741,4.2793316 4.2984478,4.2228804 4.2422053,4.1597447 4.1833762,4.0992866 4.1612968,4.0767494 4.1151712,4.0289342 4.0914013,4.0075141 4.0400978,3.9612824 3.9826043,3.9219179 3.9259192,3.8827638 3.8349216,3.8287356 3.7445661,3.7729869 3.6428097,3.7410953 3.5832438,3.7212039 3.5224235,3.7028466 3.4588696,3.7046222 c 0,0 0.03988,0.028974 0.03988,0.028974 z" />
  </g>
</svg>
